<svg width="68" height="45" viewBox="0 0 68 45" fill="none" xmlns="http://www.w3.org/2000/svg">
<path d="M1 0.8L0.8 0.799998V1V40.282V40.482H1H1.93105V43.6762V43.8762H2.13105H6.62147H6.82147V43.6762V40.482H61.0479V43.6762V43.8762H61.2479H65.7378H65.9378V43.6762V40.4821L66.8698 40.4825L67.0699 40.4826V40.2825V1.00054V0.800546L66.8699 0.800545L1 0.8ZM5.60845 42.6624H3.14458V40.4811H5.60893L5.60845 42.6624ZM64.7238 42.6624H62.2605V40.4811H64.7238V42.6624ZM65.8559 39.2681H2.01178V2.01302H65.8545L65.8559 39.2681Z" fill="white" stroke="white" stroke-width="0.4"/>
<path d="M10.1924 8.27772H9.99238V8.47772V32.8028V33.0028H10.1924H11.0054H11.2054V32.8028V8.47772V8.27772H11.0054H10.1924Z" fill="white" stroke="white" stroke-width="0.4"/>
<path d="M19.5271 8.27772H19.3271V8.47772V32.8028V33.0028H19.5271H20.3401H20.5401V32.8028V8.47772V8.27772H20.3401H19.5271Z" fill="white" stroke="white" stroke-width="0.4"/>
<path d="M28.8618 8.27772H28.6618V8.47772V32.8028V33.0028H28.8618H29.6748H29.8748V32.8028V8.47772V8.27772H29.6748H28.8618Z" fill="white" stroke="white" stroke-width="0.4"/>
<path d="M38.1948 8.27772H37.9948V8.47772V32.8028V33.0028H38.1948H39.0078H39.2078V32.8028V8.47772V8.27772H39.0078H38.1948Z" fill="white" stroke="white" stroke-width="0.4"/>
<path d="M47.5298 8.27772H47.3298V8.47772V32.8028V33.0028H47.5298H48.3428H48.5428V32.8028V8.47772V8.27772H48.3428H47.5298Z" fill="white" stroke="white" stroke-width="0.4"/>
<path d="M56.863 8.27772H56.663V8.47772V32.8028V33.0028H56.863H57.6761H57.8761V32.8028V8.47772V8.27772H57.6761H56.863Z" fill="white" stroke="white" stroke-width="0.4"/>
</svg>
