<svg width="81" height="53" viewBox="0 0 81 53" fill="none" xmlns="http://www.w3.org/2000/svg">
<path d="M1 0.8L0.8 0.799998V1V48.1545V48.3545H1H2.15772V52.2291V52.4291H2.35772H7.74808H7.94808V52.2291V48.3545H73.1223V52.2291V52.4291H73.3223H78.712H78.912V52.2291V48.3546L80.0709 48.3552L80.271 48.3553V48.1552V1.00065V0.800655L80.071 0.800654L1 0.8ZM6.57212 51.0521H3.5343V48.3535H6.5727L6.57212 51.0521ZM77.5348 51.0521H74.4977V48.3535H77.5348V51.0521ZM78.8938 46.9776H2.17447V2.17596H78.8922L78.8938 46.9776Z" fill="#EA142E" stroke="#EA142E" stroke-width="0.4"/>
<path d="M12.0347 9.77638H11.8347V9.97638V39.1764V39.3764H12.0347H13.0106H13.2106V39.1764V9.97638V9.77638H13.0106H12.0347Z" fill="#EA142E" stroke="#EA142E" stroke-width="0.4"/>
<path d="M23.2402 9.77638H23.0402V9.97638V39.1764V39.3764H23.2402H24.2162H24.4162V39.1764V9.97638V9.77638H24.2162H23.2402Z" fill="#EA142E" stroke="#EA142E" stroke-width="0.4"/>
<path d="M34.4456 9.77638H34.2456V9.97638V39.1764V39.3764H34.4456H35.4215H35.6215V39.1764V9.97638V9.77638H35.4215H34.4456Z" fill="#EA142E" stroke="#EA142E" stroke-width="0.4"/>
<path d="M45.6492 9.77638H45.4492V9.97638V39.1764V39.3764H45.6492H46.6251H46.8251V39.1764V9.97638V9.77638H46.6251H45.6492Z" fill="#EA142E" stroke="#EA142E" stroke-width="0.4"/>
<path d="M56.855 9.77638H56.655V9.97638V39.1764V39.3764H56.855H57.8309H58.0309V39.1764V9.97638V9.77638H57.8309H56.855Z" fill="#EA142E" stroke="#EA142E" stroke-width="0.4"/>
<path d="M68.0586 9.77638H67.8586V9.97638V39.1764V39.3764H68.0586H69.0346H69.2346V39.1764V9.97638V9.77638H69.0346H68.0586Z" fill="#EA142E" stroke="#EA142E" stroke-width="0.4"/>
</svg>
