<svg width="82" height="69" viewBox="0 0 82 69" fill="none" xmlns="http://www.w3.org/2000/svg">
<path d="M81.7097 12.6745C81.5486 12.497 81.3121 12.3799 81 12.3799H75.5932H61.9321H43.8555H25.2025H9.81352H1.52719H0.999994C0.455101 12.3799 0 12.835 0 13.3799V20.9661V38.0483V56.1093V66.6338V67.0929C0 67.6378 0.455101 68.0929 0.999994 68.0929H6.40678H20.0679H38.1445H56.7975H72.1865H80.4728H81C81.5449 68.0929 82 67.6378 82 67.0929V59.5067V42.4245V24.3635V13.8391V13.3799C82 13.0705 81.8848 12.8353 81.7097 12.6745ZM72.1865 14.3798H80V20.9661V38.0483V56.1092V66.0929H75.5932H61.9321H43.8555H25.2025H9.81352H1.99999V59.5066V42.4244V24.3635V14.3798H6.40678H20.0679H38.1445H56.7975H72.1865Z" fill="white"/>
<path d="M81.7097 12.6745C81.5486 12.497 81.3121 12.3799 81 12.3799H75.5932H61.9321H43.8555H25.2025H9.81352H1.52719H0.999994C0.455101 12.3799 0 12.835 0 13.3799V20.9661V38.0483V56.1093V66.6338V67.0929C0 67.6378 0.455101 68.0929 0.999994 68.0929H6.40678H20.0679H38.1445H56.7975H72.1865H80.4728H81C81.5449 68.0929 82 67.6378 82 67.0929V59.5067V42.4245V24.3635V13.8391V13.3799C82 13.0705 81.8848 12.8353 81.7097 12.6745ZM72.1865 14.3798H80V20.9661V38.0483V56.1092V66.0929H75.5932H61.9321H43.8555H25.2025H9.81352H1.99999V59.5066V42.4244V24.3635V14.3798H6.40678H20.0679H38.1445H56.7975H72.1865Z" stroke="#EA142E"/>
<path d="M28.762 8.04761V1.99999H40.1912H53.238V8.04761C53.238 9.33739 55.238 9.33739 55.238 8.04761V0.999994C55.238 0.455101 54.7829 0 54.238 0H41.8088H27.8905H27.762C27.2171 0 26.762 0.455101 26.762 0.999994V8.04761C26.762 9.33739 28.7619 9.33739 28.7619 8.04761H28.762Z" fill="white"/>
<path d="M28.762 8.04761V1.99999H40.1912H53.238V8.04761C53.238 9.33739 55.238 9.33739 55.238 8.04761V0.999994C55.238 0.455101 54.7829 0 54.238 0H41.8088H27.8905H27.762C27.2171 0 26.762 0.455101 26.762 0.999994V8.04761C26.762 9.33739 28.7619 9.33739 28.7619 8.04761H28.762Z" stroke="#EA142E"/>
<path d="M81.7097 12.6745C81.5486 12.497 81.3121 12.3799 81 12.3799H75.5932H61.9321H43.8555H25.2025H9.81352H1.52719H0.999994C0.455101 12.3799 0 12.835 0 13.3799V27.1757V27.6655C0 28.2104 0.455101 28.6655 0.999994 28.6655H6.40678H20.0679H38.1445H56.7975H72.1865H80.4728H81C81.5449 28.6655 82 28.2104 82 27.6655V13.8697V13.3799C82 13.0705 81.8848 12.8353 81.7097 12.6745ZM72.1865 14.3798H80V26.6655H75.5932H61.9321H43.8555H25.2025H9.81352H1.99999V14.3798H6.40678H20.0679H38.1445H56.7975H72.1865Z" fill="white"/>
<path d="M81.7097 12.6745C81.5486 12.497 81.3121 12.3799 81 12.3799H75.5932H61.9321H43.8555H25.2025H9.81352H1.52719H0.999994C0.455101 12.3799 0 12.835 0 13.3799V27.1757V27.6655C0 28.2104 0.455101 28.6655 0.999994 28.6655H6.40678H20.0679H38.1445H56.7975H72.1865H80.4728H81C81.5449 28.6655 82 28.2104 82 27.6655V13.8697V13.3799C82 13.0705 81.8848 12.8353 81.7097 12.6745ZM72.1865 14.3798H80V26.6655H75.5932H61.9321H43.8555H25.2025H9.81352H1.99999V14.3798H6.40678H20.0679H38.1445H56.7975H72.1865Z" stroke="#EA142E"/>
<path d="M49.7101 26.9596C49.549 26.7821 49.3125 26.665 49.0004 26.665H34.763H33.0005C32.4556 26.665 32.0005 27.1201 32.0005 27.665V37.5697C32.0005 38.1146 32.4556 38.5697 33.0005 38.5697H47.2378H49.0004C49.5453 38.5697 50.0004 38.1146 50.0004 37.5697V27.665C50.0004 27.3557 49.8852 27.1205 49.7101 26.9596ZM47.2378 28.665H48.0004V36.5697H34.763H34.0005V28.665H47.2378Z" fill="white"/>
<path d="M49.7101 26.9596C49.549 26.7821 49.3125 26.665 49.0004 26.665H34.763H33.0005C32.4556 26.665 32.0005 27.1201 32.0005 27.665V37.5697C32.0005 38.1146 32.4556 38.5697 33.0005 38.5697H47.2378H49.0004C49.5453 38.5697 50.0004 38.1146 50.0004 37.5697V27.665C50.0004 27.3557 49.8852 27.1205 49.7101 26.9596ZM47.2378 28.665H48.0004V36.5697H34.763H34.0005V28.665H47.2378Z" stroke="#EA142E"/>
</svg>
