<svg width="84" height="67" viewBox="0 0 84 67" fill="none" xmlns="http://www.w3.org/2000/svg">
<path d="M54.2149 66.1492H53.9801H49.0859C48.6868 66.1492 48.3387 65.8774 48.2438 65.4894L46.8858 59.9532C43.7447 60.2706 41.1288 60.3047 38.1285 60.0956L36.6994 65.5048L36.6993 65.5051C36.5982 65.8851 36.2549 66.15 35.861 66.15H30.9668C30.5677 66.15 30.2196 65.8782 30.1247 65.4902L28.3916 58.4267C22.4268 56.6882 17.3857 53.6998 13.7533 49.7418L9.06673 51.5839C8.33513 51.8737 7.53228 51.8578 6.81013 51.5431C6.0876 51.2283 5.5315 50.65 5.2428 49.9168L5.24277 49.9167L1.0546 39.2608C0.459348 37.7483 1.2072 36.0317 2.72035 35.4363L2.72045 35.4363L7.4158 33.5929C7.44704 25.4226 11.6452 18.0252 18.9544 13.2134C19.1401 10.3741 20.982 7.3 23.4737 4.9343C25.9878 2.54742 29.1966 0.85 32.1039 0.85C32.3975 0.85 32.6719 0.998943 32.8319 1.24471L32.8323 1.24546C32.9907 1.49203 33.0165 1.8026 32.8953 2.07158L54.2149 66.1492ZM54.2149 66.1492L54.2015 66.1203M54.2149 66.1492L54.2015 66.1203M54.2015 66.1203C54.4974 66.0426 54.7365 65.8125 54.8202 65.509L54.8206 65.5074L56.834 57.8867C68.627 53.8597 75.9837 44.7285 76.0829 33.9069C79.079 33.0501 81.2808 31.1856 83.1542 27.974L83.1544 27.9737C83.3531 27.6313 83.2953 27.1976 83.0116 26.9193C82.7273 26.6404 82.2934 26.5907 81.9538 26.7965M54.2015 66.1203L32.8952 2.07175C31.7452 4.63681 30.9178 6.57449 30.5528 8.39681C34.1027 7.56484 37.8624 7.14453 41.7504 7.14453C59.7242 7.14453 72.931 15.6658 75.5852 28.9874C78.884 28.6231 81.8761 26.8428 81.9538 26.7965M81.9538 26.7965C81.9539 26.7965 81.9539 26.7965 81.954 26.7964L81.9551 26.7958L82.0316 26.9248L81.9538 26.7965ZM55.8436 56.3859L55.844 56.3858C67.4473 52.5892 74.3483 44.0973 74.3483 33.6832C74.3483 33.6455 74.3457 33.6112 74.3426 33.5717C74.3412 33.553 74.3396 33.533 74.3382 33.5109C74.3315 33.4287 74.3253 33.3437 74.3237 33.2554M55.8436 56.3859L74.4737 33.2528M55.8436 56.3859C55.5648 56.478 55.3507 56.7045 55.2756 56.9884L53.3131 64.4161H49.7661L48.3922 58.8063L48.3921 58.8062C48.2881 58.3828 47.8836 58.1042 47.4545 58.1511L47.4542 58.1512C45.3949 58.3815 43.5303 58.494 41.7524 58.494C40.405 58.494 39.0291 58.4351 37.5473 58.3144L37.5473 58.3143L37.5429 58.3141C37.1341 58.2928 36.7477 58.5465 36.6392 58.9568L35.1959 64.4179H31.6489L29.9576 57.524L29.9576 57.5239C29.8826 57.2193 29.6494 56.9799 29.3478 56.8959L29.3477 56.8959C23.2564 55.2047 18.1772 52.1758 14.6519 48.1441L14.6517 48.1438C14.4092 47.8679 14.0218 47.7774 13.6827 47.9078L13.6817 47.9082L8.4326 49.9705L8.4318 49.9708C8.13082 50.0911 7.80046 50.0852 7.5031 49.9548L7.50273 49.9546M55.8436 56.3859L7.50273 49.9546M74.3237 33.2554L74.4737 33.2528M74.3237 33.2554C74.3237 33.2556 74.3237 33.2558 74.3237 33.256L74.4737 33.2528M74.3237 33.2554C74.3149 32.8434 74.5971 32.484 74.9986 32.3929L75.0318 32.5392C74.6993 32.6146 74.4662 32.912 74.4737 33.2528M7.50273 49.9546C7.20456 49.8248 6.97615 49.5878 6.85692 49.2856L7.50273 49.9546ZM83.0246 27.8984C81.1439 31.1225 78.9403 32.9631 75.9337 33.7931L83.0246 27.8984ZM74.9065 30.7762C76.6652 30.7051 78.3591 30.2461 79.7255 29.7415L9.15748 33.842C9.15302 33.7861 9.1491 33.7369 9.1491 33.6865C9.1491 25.8275 13.1004 18.9847 20.2905 14.4149C20.5839 14.2286 20.7235 13.8889 20.6735 13.5569C20.7235 11.3355 22.0963 8.82224 24.0731 6.75346C25.9756 4.76255 28.4122 3.21021 30.7028 2.73611C29.573 5.32479 28.8234 7.35364 28.6483 9.48011C28.6248 9.76136 28.7405 10.0361 28.9565 10.216C29.1735 10.3976 29.4634 10.4606 29.7348 10.3894L29.7353 10.3893C33.5027 9.38638 37.544 8.87822 41.7484 8.87822C59.2543 8.87822 71.885 17.2152 74.0157 30.0524L74.0157 30.0526C74.0878 30.4824 74.4436 30.7879 74.9042 30.7763L74.9065 30.7762ZM9.17744 34.1557C9.17509 34.0623 9.16807 33.9699 9.16057 33.8814L8.62731 34.9813C8.9659 34.8485 9.18559 34.5187 9.17745 34.1561L9.17744 34.1557ZM3.3551 37.0533L8.62718 34.9813L6.85686 49.2854L2.66873 38.6297L2.66871 38.6296C2.42328 38.0058 2.73142 37.2979 3.35502 37.0533L3.3551 37.0533Z" fill="white" stroke="white" stroke-width="0.3"/>
<path d="M17.9602 32.8597C18.2891 32.8597 18.5574 32.6278 18.7351 32.3167C18.9152 32.0014 19.0218 31.5757 19.0218 31.1136C19.0218 30.6515 18.9152 30.2259 18.7351 29.9106C18.5574 29.5995 18.2891 29.3676 17.9602 29.3676C17.6313 29.3676 17.363 29.5995 17.1853 29.9106C17.0052 30.2259 16.8986 30.6515 16.8986 31.1136C16.8986 31.5757 17.0052 32.0014 17.1853 32.3167C17.363 32.6278 17.6313 32.8597 17.9602 32.8597Z" fill="white" stroke="white" stroke-width="0.3"/>
</svg>
