<svg width="73" height="75" viewBox="0 0 73 75" fill="none" xmlns="http://www.w3.org/2000/svg">
<path d="M9.26427 0V7.36143H0V66.8319H34.0777C38.1007 71.845 44.1283 74.8302 50.5537 74.993C56.9793 75.1557 63.1505 72.4787 67.4227 67.676C71.695 62.8734 73.6337 56.4323 72.7227 50.07C71.8117 43.7073 68.1439 38.0687 62.6963 34.6574V7.36217H53.3496V0.000738664H43.0105V7.36217H19.6028V0.000738664L9.26427 0ZM10.9184 1.65411H17.9493L17.9487 12.4893H10.9184L10.9184 1.65411ZM71.2987 53.1842C71.2987 58.5366 69.1721 63.6704 65.3872 67.4552C61.6024 71.2401 56.4692 73.3662 51.1168 73.3662C45.7638 73.3662 40.6306 71.2401 36.8457 67.4552C33.0609 63.6704 30.9347 58.5366 30.9347 53.1842C30.9347 47.8317 33.0609 42.6985 36.8457 38.9137C40.6306 35.1288 45.7638 33.0022 51.1168 33.0022C56.4622 33.0242 61.5833 35.1572 65.3636 38.9375C69.1433 42.7177 71.2768 47.8382 71.2988 53.1843L71.2987 53.1842ZM51.1168 31.348C45.8341 31.3405 40.7286 33.2473 36.7447 36.7166C32.7613 40.1853 30.1702 44.981 29.4514 50.214C28.733 55.4471 29.936 60.7631 32.837 65.1776H1.65425V22.6633H61.042V33.7467C57.9709 32.171 54.5686 31.3489 51.1166 31.3483L51.1168 31.348ZM44.6652 1.65411H51.6961L51.6955 12.4893H44.6652L44.6652 1.65411ZM43.0111 9.01554V14.1436H53.3496V9.01554H61.0416L61.0421 21.0087H1.65439V9.01554H9.34638V14.1436H19.6035V9.01554H43.0111Z" fill="white"/>
<path d="M9.26427 0V7.36143H0V66.8319H34.0777C38.1007 71.845 44.1283 74.8302 50.5537 74.993C56.9793 75.1557 63.1505 72.4787 67.4227 67.676C71.695 62.8734 73.6337 56.4323 72.7227 50.07C71.8117 43.7073 68.1439 38.0687 62.6963 34.6574V7.36217H53.3496V0.000738664H43.0105V7.36217H19.6028V0.000738664L9.26427 0ZM10.9184 1.65411H17.9493L17.9487 12.4893H10.9184L10.9184 1.65411ZM71.2987 53.1842C71.2987 58.5366 69.1721 63.6704 65.3872 67.4552C61.6024 71.2401 56.4692 73.3662 51.1168 73.3662C45.7638 73.3662 40.6306 71.2401 36.8457 67.4552C33.0609 63.6704 30.9347 58.5366 30.9347 53.1842C30.9347 47.8317 33.0609 42.6985 36.8457 38.9137C40.6306 35.1288 45.7638 33.0022 51.1168 33.0022C56.4622 33.0242 61.5833 35.1572 65.3636 38.9375C69.1433 42.7177 71.2768 47.8382 71.2988 53.1843L71.2987 53.1842ZM51.1168 31.348C45.8341 31.3405 40.7286 33.2473 36.7447 36.7166C32.7613 40.1853 30.1702 44.981 29.4514 50.214C28.733 55.4471 29.936 60.7631 32.837 65.1776H1.65425V22.6633H61.042V33.7467C57.9709 32.171 54.5686 31.3489 51.1166 31.3483L51.1168 31.348ZM44.6652 1.65411H51.6961L51.6955 12.4893H44.6652L44.6652 1.65411ZM43.0111 9.01554V14.1436H53.3496V9.01554H61.0416L61.0421 21.0087H1.65439V9.01554H9.34638V14.1436H19.6035V9.01554H43.0111Z" stroke="white"/>
</svg>
