<svg width="71" height="75" viewBox="0 0 71 75" fill="none" xmlns="http://www.w3.org/2000/svg">
<path d="M19.6927 6.2408V6.24079C19.6927 3.98693 21.5264 2.15404 23.78 2.15404H64.7604C67.0139 2.15404 68.8477 3.98681 68.8477 6.24079V66.7411C68.8477 68.995 67.014 70.8279 64.7604 70.8279H36.2353C35.8617 70.8279 35.5593 71.1316 35.5593 71.5048C35.5593 71.8774 35.8616 72.1818 36.2353 72.1818H64.7604C67.7602 72.1818 70.2 69.7407 70.2 66.7417V6.2401C70.2 3.24092 67.76 0.8 64.7604 0.8H64.5909L64.5908 0.800689H23.7799C20.7801 0.800689 18.3403 3.24175 18.3403 6.24079V13.5104C18.3403 13.883 18.6426 14.1874 19.0163 14.1874C19.3898 14.1874 19.6922 13.8836 19.6922 13.5104L19.6927 6.2408Z" fill="white" stroke="white" stroke-width="0.4"/>
<path d="M44.2696 62.2033L44.2695 62.2033C42.8713 62.2039 41.7336 63.3409 41.7336 64.7397C41.7336 66.1386 42.8707 67.2761 44.2696 67.2761C45.6685 67.2761 46.806 66.139 46.806 64.7397C46.806 63.3409 45.6689 62.2033 44.2696 62.2033ZM45.4536 64.7397C45.4536 65.392 44.9224 65.9223 44.2695 65.9223C43.6168 65.9223 43.0859 65.3917 43.0859 64.7397C43.0859 64.0873 43.6167 63.5572 44.2695 63.5572C44.9223 63.5572 45.4536 64.0879 45.4536 64.7397Z" fill="white" stroke="white" stroke-width="0.4"/>
<path d="M45.7585 6.77991C46.1321 6.77991 46.4345 6.47615 46.4345 6.10294C46.4345 5.73038 46.1322 5.42598 45.7585 5.42598H42.7821C42.4086 5.42598 42.1062 5.72974 42.1062 6.10294C42.1062 6.47551 42.4085 6.77991 42.7821 6.77991H45.7585Z" fill="white" stroke="white" stroke-width="0.4"/>
<path d="M27.8711 17.4357H6.23959C3.23983 17.4357 0.8 19.8768 0.8 22.8758V68.6345C0.8 71.6337 3.23996 74.0746 6.23959 74.0746H27.8711C30.8708 74.0746 33.3107 71.6335 33.3107 68.6345V22.8758C33.3107 19.8767 30.8712 17.4357 27.8711 17.4357ZM31.9583 68.6345C31.9583 70.8884 30.1247 72.7212 27.8711 72.7212H6.23959C3.98614 72.7212 2.15233 70.8885 2.15233 68.6345V22.8758C2.15233 20.622 3.98602 18.7891 6.23959 18.7891H27.8711C30.1245 18.7891 31.9583 20.6219 31.9583 22.8758V68.6345Z" fill="white" stroke="white" stroke-width="0.4"/>
<path d="M17.0566 64.0959C15.6578 64.0959 14.5202 65.233 14.5202 66.6323C14.5202 68.0311 15.6574 69.1687 17.0566 69.1687C18.455 69.1687 19.5927 68.0316 19.5927 66.6323C19.5927 65.2331 18.4555 64.0959 17.0566 64.0959ZM17.0566 67.8149C16.4038 67.8149 15.8725 67.2842 15.8725 66.6323C15.8725 65.98 16.4037 65.4498 17.0566 65.4498C17.7094 65.4498 18.2402 65.9804 18.2402 66.6323C18.2402 67.2843 17.7094 67.8149 17.0566 67.8149Z" fill="white" stroke="white" stroke-width="0.4"/>
<path d="M14.893 22.7375C14.8924 23.1111 15.1952 23.4147 15.569 23.4147H18.5459C18.9194 23.4147 19.2219 23.1109 19.2219 22.7377C19.2219 22.3651 18.9196 22.0607 18.5459 22.0607H15.569C15.1955 22.0607 14.8931 22.3644 14.893 22.7375ZM14.893 22.7375C14.893 22.7376 14.893 22.7376 14.893 22.7377H15.093L14.893 22.7373C14.893 22.7374 14.893 22.7375 14.893 22.7375Z" fill="white" stroke="white" stroke-width="0.4"/>
</svg>
