<svg width="70" height="69" viewBox="0 0 70 69" fill="none" xmlns="http://www.w3.org/2000/svg">
<path d="M68.577 0.00633656H51.1565C50.9163 -0.0231285 50.6743 0.0509781 50.4931 0.211693C50.3119 0.371514 50.2074 0.602754 50.2074 0.844719C50.2074 1.08668 50.3119 1.31704 50.4931 1.47775C50.6744 1.63757 50.9163 1.71256 51.1565 1.6831H66.452L50.2093 18.0794L43.1307 11.1418C42.8021 10.8382 42.295 10.8382 41.9664 11.1418L25.3262 26.5015L17.4799 18.6551C17.1754 18.3498 16.6897 18.3221 16.3531 18.5918L0.314742 31.4811C0.140636 31.6195 0.0290293 31.8221 0.00491508 32.0436C-0.0191923 32.2641 0.0459893 32.4864 0.187061 32.6587C0.341524 32.8632 0.583493 32.982 0.839743 32.9784C1.02992 32.9775 1.21384 32.915 1.36474 32.7998L16.8781 20.3704L24.7754 28.2551C25.1022 28.5659 25.6138 28.5659 25.9406 28.2551L42.5807 12.8954L49.6842 19.8453V19.8462C50.0137 20.173 50.545 20.173 50.8744 19.8462L67.7324 2.7839V18.1436C67.7029 18.3838 67.7771 18.6258 67.9378 18.807C68.0985 18.9882 68.3288 19.0918 68.5708 19.0918C68.8128 19.0918 69.0431 18.9882 69.2038 18.807C69.3636 18.6257 69.4386 18.3838 69.4092 18.1436V0.850882C69.4127 0.627669 69.3261 0.413374 69.1699 0.254449C69.0136 0.0955213 68.8002 0.00624239 68.577 0.00624239L68.577 0.00633656Z" fill="white"/>
<path d="M68.577 0.00633656H51.1565C50.9163 -0.0231285 50.6743 0.0509781 50.4931 0.211693C50.3119 0.371514 50.2074 0.602754 50.2074 0.844719C50.2074 1.08668 50.3119 1.31704 50.4931 1.47775C50.6744 1.63757 50.9163 1.71256 51.1565 1.6831H66.452L50.2093 18.0794L43.1307 11.1418C42.8021 10.8382 42.295 10.8382 41.9664 11.1418L25.3262 26.5015L17.4799 18.6551C17.1754 18.3498 16.6897 18.3221 16.3531 18.5918L0.314742 31.4811C0.140636 31.6195 0.0290293 31.8221 0.00491508 32.0436C-0.0191923 32.2641 0.0459893 32.4864 0.187061 32.6587C0.341524 32.8632 0.583493 32.982 0.839743 32.9784C1.02992 32.9775 1.21384 32.915 1.36474 32.7998L16.8781 20.3704L24.7754 28.2551C25.1022 28.5659 25.6138 28.5659 25.9406 28.2551L42.5807 12.8954L49.6842 19.8453V19.8462C50.0137 20.173 50.545 20.173 50.8744 19.8462L67.7324 2.7839V18.1436C67.7029 18.3838 67.7771 18.6258 67.9378 18.807C68.0985 18.9882 68.3288 19.0918 68.5708 19.0918C68.8128 19.0918 69.0431 18.9882 69.2038 18.807C69.3636 18.6257 69.4386 18.3838 69.4092 18.1436V0.850882C69.4127 0.627669 69.3261 0.413374 69.1699 0.254449C69.0136 0.0955213 68.8002 0.00624239 68.577 0.00624239L68.577 0.00633656Z" stroke="white"/>
<path d="M68.474 27.2061C68.0079 27.2061 67.6293 27.5837 67.6293 28.0507V68.0505C67.5999 68.2907 67.6749 68.5327 67.8347 68.7139C67.9954 68.8952 68.2258 68.9987 68.4677 68.9987C68.7097 68.9987 68.9409 68.8952 69.1007 68.7139C69.2615 68.5327 69.3364 68.2907 69.3061 68.0505V28.0507C69.3061 27.5891 68.9356 27.2132 68.474 27.2061Z" fill="white"/>
<path d="M68.474 27.2061C68.0079 27.2061 67.6293 27.5837 67.6293 28.0507V68.0505C67.5999 68.2907 67.6749 68.5327 67.8347 68.7139C67.9954 68.8952 68.2258 68.9987 68.4677 68.9987C68.7097 68.9987 68.9409 68.8952 69.1007 68.7139C69.2615 68.5327 69.3364 68.2907 69.3061 68.0505V28.0507C69.3061 27.5891 68.9356 27.2132 68.474 27.2061Z" stroke="white"/>
<path d="M55.7886 35.0138C55.5662 35.0138 55.3529 35.1031 55.1957 35.262C55.0395 35.4209 54.9537 35.6352 54.9573 35.8584V68.0503C54.9269 68.2905 55.0019 68.5324 55.1627 68.7137C55.3225 68.8949 55.5528 68.9985 55.7957 68.9985C56.0377 68.9985 56.268 68.8949 56.4287 68.7137C56.5885 68.5324 56.6635 68.2904 56.6341 68.0503V35.8584C56.6367 35.6334 56.5492 35.4165 56.3903 35.2575C56.2305 35.0977 56.0144 35.0102 55.7885 35.0138H55.7886Z" fill="white"/>
<path d="M55.7886 35.0138C55.5662 35.0138 55.3529 35.1031 55.1957 35.262C55.0395 35.4209 54.9537 35.6352 54.9573 35.8584V68.0503C54.9269 68.2905 55.0019 68.5324 55.1627 68.7137C55.3225 68.8949 55.5528 68.9985 55.7957 68.9985C56.0377 68.9985 56.268 68.8949 56.4287 68.7137C56.5885 68.5324 56.6635 68.2904 56.6341 68.0503V35.8584C56.6367 35.6334 56.5492 35.4165 56.3903 35.2575C56.2305 35.0977 56.0144 35.0102 55.7885 35.0138H55.7886Z" stroke="white"/>
<path d="M43.0412 47.252C42.5742 47.252 42.1966 47.6305 42.1966 48.0966V68.0519C42.1662 68.2921 42.2412 68.5341 42.4019 68.7153C42.5617 68.8966 42.7921 69.0001 43.0349 69.0001C43.2769 69.0001 43.5073 68.8966 43.668 68.7153C43.8278 68.5341 43.9028 68.2921 43.8733 68.0519V48.0582C43.8528 47.6118 43.4876 47.2582 43.0412 47.252Z" fill="white"/>
<path d="M43.0412 47.252C42.5742 47.252 42.1966 47.6305 42.1966 48.0966V68.0519C42.1662 68.2921 42.2412 68.5341 42.4019 68.7153C42.5617 68.8966 42.7921 69.0001 43.0349 69.0001C43.2769 69.0001 43.5073 68.8966 43.668 68.7153C43.8278 68.5341 43.9028 68.2921 43.8733 68.0519V48.0582C43.8528 47.6118 43.4876 47.2582 43.0412 47.252Z" stroke="white"/>
<path d="M29.9074 40.9551C29.444 40.9613 29.0699 41.3363 29.0627 41.7997V68.0533C29.0627 68.5203 29.4404 68.898 29.9074 68.898C30.3744 68.898 30.752 68.5203 30.752 68.0533V41.7997C30.7449 41.3363 30.3708 40.9613 29.9074 40.9551Z" fill="white"/>
<path d="M29.9074 40.9551C29.444 40.9613 29.0699 41.3363 29.0627 41.7997V68.0533C29.0627 68.5203 29.4404 68.898 29.9074 68.898C30.3744 68.898 30.752 68.5203 30.752 68.0533V41.7997C30.7449 41.3363 30.3708 40.9613 29.9074 40.9551Z" stroke="white"/>
<path d="M17.0297 49.2608C16.8065 49.2573 16.5922 49.343 16.4333 49.5001C16.2744 49.6564 16.1851 49.8698 16.1851 50.093V68.0125C16.1547 68.2527 16.2297 68.4946 16.3904 68.6759C16.5503 68.8571 16.7815 68.9607 17.0235 68.9607C17.2654 68.9607 17.4958 68.8571 17.6565 68.6759C17.8163 68.4946 17.8913 68.2526 17.8619 68.0125V50.093C17.8619 49.8716 17.7744 49.66 17.6181 49.5046C17.4619 49.3484 17.2502 49.2609 17.0297 49.2609L17.0297 49.2608Z" fill="white"/>
<path d="M17.0297 49.2608C16.8065 49.2573 16.5922 49.343 16.4333 49.5001C16.2744 49.6564 16.1851 49.8698 16.1851 50.093V68.0125C16.1547 68.2527 16.2297 68.4946 16.3904 68.6759C16.5503 68.8571 16.7815 68.9607 17.0235 68.9607C17.2654 68.9607 17.4958 68.8571 17.6565 68.6759C17.8163 68.4946 17.8913 68.2526 17.8619 68.0125V50.093C17.8619 49.8716 17.7744 49.66 17.6181 49.5046C17.4619 49.3484 17.2502 49.2609 17.0297 49.2609L17.0297 49.2608Z" stroke="white"/>
<path d="M4.26871 56.212C3.80711 56.212 3.4312 56.5825 3.42407 57.0441V68.0646C3.42407 68.5316 3.80174 68.9102 4.26871 68.9102C4.73568 68.9102 5.11334 68.5316 5.11334 68.0646V57.0315C5.09995 56.5744 4.72585 56.2119 4.26871 56.2119V56.212Z" fill="white"/>
<path d="M4.26871 56.212C3.80711 56.212 3.4312 56.5825 3.42407 57.0441V68.0646C3.42407 68.5316 3.80174 68.9102 4.26871 68.9102C4.73568 68.9102 5.11334 68.5316 5.11334 68.0646V57.0315C5.09995 56.5744 4.72585 56.2119 4.26871 56.2119V56.212Z" stroke="white"/>
</svg>
