<svg width="18" height="18" viewBox="0 0 18 18" fill="none" xmlns="http://www.w3.org/2000/svg">
<path d="M15.9465 1.45035L15.7697 1.27357L15.5929 1.45035L9 8.04328L2.40707 1.45035L2.2303 1.27357L2.05352 1.45035L1.45079 2.05307L1.27402 2.22985L1.45079 2.40663L8.04372 8.99956L1.45079 15.5925L1.27402 15.7693L1.45079 15.946L2.05352 16.5488L2.23029 16.7255L2.40707 16.5488L9 9.95583L15.5929 16.5488L15.7697 16.7255L15.9465 16.5488L16.5492 15.946L16.726 15.7693L16.5492 15.5925L9.95628 8.99956L16.5492 2.40663L16.726 2.22985L16.5492 2.05307L15.9465 1.45035Z" fill="white" stroke="white" stroke-width="0.5"/>
</svg>
