<svg width="78" height="77" viewBox="0 0 78 77" fill="none" xmlns="http://www.w3.org/2000/svg">
<path d="M76.8664 35.1022L76.9031 35.0682C76.9032 35.0683 76.9032 35.0684 76.9033 35.0685C76.9224 35.0892 76.9376 35.1143 76.9493 35.1338C76.9529 35.1397 76.9562 35.1451 76.9591 35.1497C76.9592 35.1498 76.9592 35.1499 76.9593 35.15L76.9611 35.1526C76.9851 35.1886 77.012 35.2291 77.0299 35.2775L76.983 35.2947L77.0299 35.2775C77.0366 35.2959 77.0402 35.3139 77.0429 35.3295C77.044 35.3365 77.0449 35.3424 77.0457 35.3479C77.047 35.3562 77.0481 35.3635 77.0497 35.372L77.0533 35.39C77.0559 35.4 77.0589 35.4103 77.0623 35.4238C77.0673 35.4435 77.0722 35.4668 77.0722 35.4926V75.4149C77.0722 75.7659 76.7881 76.05 76.4371 76.05H1.54263C1.19161 76.05 0.90752 75.7659 0.90752 75.4149V35.4926C0.90752 35.4667 0.91242 35.4436 0.917437 35.424C0.919452 35.4161 0.921315 35.4093 0.923033 35.4031C0.926042 35.3921 0.928608 35.3828 0.930775 35.372L0.979804 35.3818M76.8664 35.1022C76.8395 35.0727 76.8071 35.0504 76.7741 35.0278C76.77 35.025 76.7659 35.0222 76.7618 35.0193L76.7908 34.9786C76.7849 34.9744 76.78 34.9698 76.7727 34.9631C76.7706 34.9612 76.7683 34.9591 76.7657 34.9567C76.7554 34.9473 76.7414 34.9351 76.7229 34.9257L76.7227 34.9256L41.6769 17.1647C42.4721 16.4121 42.9718 15.3505 42.9718 14.1719C42.9718 12.1125 41.4552 10.3999 39.48 10.0936V8.22275H45.2296C45.5806 8.22275 45.8647 7.93866 45.8647 7.58764V1.58511C45.8647 1.23409 45.5806 0.95 45.2296 0.95H32.46C32.109 0.95 31.8249 1.23409 31.8249 1.58511V7.58764C31.8249 7.93866 32.109 8.22275 32.46 8.22275H38.2096V10.6801C38.2096 11.0311 38.4937 11.3152 38.8447 11.3152C40.4199 11.3152 41.7014 12.5968 41.7014 14.1719C41.7014 15.1559 41.1995 16.0235 40.44 16.5373L39.2782 15.9483L39.278 15.9482C39.097 15.8571 38.8849 15.8571 38.7039 15.9482L38.7038 15.9483L37.3895 16.6147C36.5543 16.115 35.9886 15.2123 35.9886 14.1718C35.9886 13.8208 35.7045 13.5367 35.3535 13.5367C35.0024 13.5367 34.7184 13.8208 34.7184 14.1718C34.7184 15.4009 35.2603 16.504 36.1154 17.2606L1.25776 34.9252L1.25758 34.9253C1.23911 34.9347 1.22507 34.9469 1.21476 34.9563C1.21219 34.9587 1.2099 34.9608 1.20781 34.9627C1.2005 34.9695 1.19561 34.974 1.18969 34.9782L1.21865 35.0189M76.8664 35.1022C76.8818 35.1188 76.8929 35.1372 76.9042 35.156C76.9085 35.163 76.9127 35.17 76.9173 35.177L76.8664 35.1022ZM1.21865 35.0189C1.21456 35.0218 1.21047 35.0246 1.20638 35.0274C1.17341 35.0501 1.14103 35.0723 1.11408 35.1018C1.10047 35.1169 1.09011 35.1338 1.07969 35.1508C1.07436 35.1595 1.06902 35.1682 1.06323 35.1767L1.06217 35.1782C1.0374 35.2154 1.01329 35.2515 0.997516 35.2944C0.990438 35.3136 0.987419 35.3337 0.984362 35.354C0.982978 35.3633 0.981585 35.3725 0.979804 35.3818M1.21865 35.0189L1.19019 34.9778C1.18626 34.9806 1.18223 34.9833 1.17812 34.9861C1.14564 35.0084 1.10827 35.034 1.07717 35.0681L1.07692 35.0684C1.06377 35.083 1.05355 35.0982 1.04505 35.1117C1.04179 35.1169 1.03894 35.1216 1.03627 35.1259C1.03136 35.1339 1.02706 35.1409 1.02191 35.1485L1.02163 35.1489L1.01946 35.1522C0.995415 35.1882 0.968443 35.2286 0.950599 35.2771L0.950583 35.2771C0.943837 35.2955 0.94023 35.3135 0.93762 35.3293C0.936419 35.3365 0.935511 35.3426 0.934666 35.3483C0.933442 35.3565 0.932352 35.3638 0.930704 35.3723L0.979804 35.3818M1.21865 35.0189C1.22742 35.0127 1.23516 35.0056 1.24289 34.9984C1.25431 34.9878 1.26571 34.9773 1.28036 34.9698M0.979804 35.3818L1.28036 34.9698M1.28036 34.9698L36.156 17.2961L1.28036 34.9698ZM77.001 35.381L77.0227 35.3367L77.0219 35.3363L76.9904 35.3209L77.001 35.381ZM34.7684 14.1718C34.7684 15.393 35.3099 16.4884 36.1634 17.2363L38.7264 15.9929L37.3876 16.6717C36.5254 16.1666 35.9386 15.2409 35.9386 14.1718C35.9386 13.8484 35.6769 13.5867 35.3535 13.5867C35.0301 13.5867 34.7684 13.8484 34.7684 14.1718ZM37.4009 18.0327C37.8293 18.1941 38.2891 18.2894 38.7709 18.2983L38.7704 18.2995H38.8452C39.4165 18.2995 39.9608 18.1815 40.4564 17.9704L73.7803 34.8584H4.20174L37.4009 18.0327ZM33.0955 2.22059H44.595V6.95289H38.8646C38.8607 6.95178 38.8535 6.95004 38.8452 6.95004C38.8369 6.95004 38.8297 6.95178 38.8259 6.95289H33.0955L33.0955 2.22059ZM75.8036 74.7814H2.17934V36.1293H75.8036V74.7814Z" fill="#EA142E" stroke="#EA142E" stroke-width="0.1"/>
<path d="M66.7183 69.5282C67.0417 69.5282 67.3118 69.289 67.3118 68.9838V41.7117C67.3118 41.4064 67.0417 41.1673 66.7183 41.1673C66.3948 41.1673 66.1248 41.4064 66.1248 41.7117V68.9838C66.1248 69.289 66.3948 69.5282 66.7183 69.5282Z" fill="#EA142E" stroke="#EA142E" stroke-width="0.1"/>
<path d="M55.8489 69.5282C56.1723 69.5282 56.4424 69.289 56.4424 68.9838V41.7117C56.4424 41.4064 56.1723 41.1673 55.8489 41.1673C55.5255 41.1673 55.2554 41.4064 55.2554 41.7117V68.9838C55.2554 69.289 55.5255 69.5282 55.8489 69.5282Z" fill="#EA142E" stroke="#EA142E" stroke-width="0.1"/>
<path d="M44.9793 69.5282C45.3027 69.5282 45.5727 69.289 45.5727 68.9838V41.7117C45.5727 41.4064 45.3027 41.1673 44.9793 41.1673C44.6558 41.1673 44.3858 41.4064 44.3858 41.7117V68.9838C44.3858 69.289 44.6558 69.5282 44.9793 69.5282Z" fill="#EA142E" stroke="#EA142E" stroke-width="0.1"/>
<path d="M33.0227 69.5282C33.3462 69.5282 33.6162 69.289 33.6162 68.9838V41.7117C33.6162 41.4064 33.3462 41.1673 33.0227 41.1673C32.6993 41.1673 32.4292 41.4064 32.4292 41.7117V68.9838C32.4292 69.289 32.6993 69.5282 33.0227 69.5282Z" fill="#EA142E" stroke="#EA142E" stroke-width="0.1"/>
<path d="M22.1531 69.5282C22.4765 69.5282 22.7466 69.289 22.7466 68.9838V41.7117C22.7466 41.4064 22.4765 41.1673 22.1531 41.1673C21.8297 41.1673 21.5596 41.4064 21.5596 41.7117V68.9838C21.5596 69.289 21.8297 69.5282 22.1531 69.5282Z" fill="#EA142E" stroke="#EA142E" stroke-width="0.1"/>
<path d="M11.2837 69.5282C11.6072 69.5282 11.8772 69.289 11.8772 68.9838V41.7117C11.8772 41.4064 11.6072 41.1673 11.2837 41.1673C10.9603 41.1673 10.6902 41.4064 10.6902 41.7117V68.9838C10.6902 69.289 10.9603 69.5282 11.2837 69.5282Z" fill="#EA142E" stroke="#EA142E" stroke-width="0.1"/>
</svg>
