<svg width="50" height="63" viewBox="0 0 50 63" fill="none" xmlns="http://www.w3.org/2000/svg">
<path d="M24.9923 62.1431L25.1321 62.2796L25.2719 62.1431L25.5287 61.8922L25.5287 61.8921C26.0184 61.4133 31.9941 55.5344 37.8489 48.1306C40.7761 44.4288 43.6767 40.3413 45.8464 36.3536C48.0134 32.371 49.4642 28.4648 49.4642 25.1317C49.4642 11.7161 38.5485 0.8 25.1325 0.8H25.1317C11.7162 0.8 0.8 11.7148 0.8 25.1317C0.8 28.4648 2.25077 32.371 4.41769 36.3537C6.58733 40.3414 9.48786 44.4289 12.415 48.1306C18.2697 55.5345 24.2455 61.4134 24.7356 61.8922L24.9923 62.1431ZM25.1317 60.6869C23.6075 59.1574 17.9677 53.3853 12.6286 46.5019C9.86787 42.9428 7.1911 39.091 5.20538 35.3782C3.21699 31.6605 1.93401 28.1047 1.93401 25.1317C1.93401 12.3405 12.3403 1.93401 25.1317 1.93401C37.9232 1.93401 48.3295 12.3408 48.3295 25.1317C48.3295 28.1046 47.0464 31.6604 45.0579 35.3782C43.0721 39.091 40.3953 42.9429 37.6345 46.5021C32.2953 53.3856 26.6555 59.1577 25.1317 60.6869Z" fill="#EA142E" stroke="#EA142E" stroke-width="0.4"/>
<path d="M25.1314 16.4753C20.3577 16.4753 16.4741 20.3585 16.4741 25.1316C16.4741 29.9052 20.3578 33.7889 25.1314 33.7889C29.9049 33.7889 33.7877 29.9056 33.7877 25.1316C33.7877 20.3579 29.9049 16.4753 25.1314 16.4753ZM25.1314 32.6549C20.9822 32.6549 17.6076 29.2798 17.6076 25.1311C17.6076 20.9824 20.9827 17.6078 25.1314 17.6078C29.28 17.6078 32.6546 20.9829 32.6546 25.1311C32.6546 29.2798 29.28 32.6549 25.1314 32.6549Z" fill="#EA142E" stroke="#EA142E" stroke-width="0.4"/>
</svg>
