<svg width="75" height="65" viewBox="0 0 75 65" fill="none" xmlns="http://www.w3.org/2000/svg">
<path d="M0.75 60.0383C0.75 62.3196 2.5762 64.1844 4.84513 64.2471L4.84754 64.25H4.96431H43.8114C44.355 64.25 44.8856 64.1465 45.3866 63.9426C46.6499 64.1427 47.9439 64.25 49.263 64.25C62.902 64.25 73.9988 53.1543 73.9988 39.5142C73.9988 25.8752 62.9024 14.7784 49.263 14.7784C48.7328 14.7784 48.2086 14.7998 47.6892 14.8345C47.9081 14.3226 48.024 13.7716 48.024 13.2013V4.96326C48.024 2.63989 46.135 0.75 43.8121 0.75L4.96326 0.751388C4.96326 0.751388 4.96326 0.751388 4.96325 0.751388C2.6398 0.751393 0.75 2.6412 0.75 4.96465V13.2027C0.75 14.7951 1.64078 16.1749 2.94539 16.8896C1.64085 17.6044 0.75 18.9841 0.75 20.5765V28.8146C0.75 30.407 1.64078 31.7868 2.94539 32.5015C1.64085 33.2163 0.75 34.596 0.75 36.1884V44.4265C0.75 46.0189 1.64078 47.3987 2.94539 48.1134C1.64085 48.8281 0.75 50.2079 0.75 51.8003V60.0383ZM45.5599 63.8242C45.5601 63.8238 45.5596 63.8246 45.5587 63.8259L45.5595 63.8248L45.5597 63.8244L45.5599 63.8242ZM49.2637 15.8328V15.8329C62.3218 15.8329 72.9451 26.4568 72.9451 39.5142C72.9451 52.5716 62.3211 63.1955 49.2637 63.1955C36.2056 63.1955 25.5824 52.5716 25.5824 39.5142C25.5824 27.2925 34.8896 17.2041 46.7877 15.9622C46.7894 15.9621 46.7913 15.9619 46.7933 15.9618C46.7988 15.9614 46.8053 15.9607 46.8125 15.9596C47.6188 15.8764 48.4366 15.8328 49.2637 15.8328ZM1.8057 13.2925V13.2031V4.96501C1.8057 3.22251 3.22378 1.80498 4.96573 1.80498H43.8128C45.5546 1.80498 46.9721 3.22236 46.9721 4.96501V13.2031C46.9721 13.8289 46.7857 14.4244 46.4373 14.9443C44.3951 15.1778 42.4281 15.6617 40.567 16.3637H4.96448C3.25254 16.3637 1.85317 14.9938 1.8057 13.2925ZM4.96519 31.975C3.24289 31.975 1.83696 30.5885 1.8057 28.8728V28.8144V20.5764C1.8057 18.8339 3.22377 17.4163 4.96573 17.4163H38.174C32.2914 20.3798 27.7441 25.6187 25.7047 31.975H4.96519ZM1.8057 44.1717V36.1877C1.8057 34.4452 3.22378 33.0277 4.96573 33.0277H25.4006C24.8368 35.0965 24.5298 37.2698 24.5298 39.5149C24.5298 42.34 25.0076 45.0547 25.8838 47.5856L4.96668 47.5863C3.22489 47.5863 1.80666 46.1682 1.80666 44.4257V44.1717L1.8057 44.1717ZM1.8057 51.7996C1.8057 50.0571 3.22377 48.6395 4.96573 48.6395H26.2798C29.0536 55.6019 34.8988 61.0159 42.1362 63.1982L4.96486 63.1975C3.223 63.1975 1.80483 61.7801 1.80483 60.0375L1.8057 51.7996Z" fill="#EA142E" stroke="#EA142E" stroke-width="0.5"/>
<path d="M54.869 48.8934L54.8697 48.8948C54.9899 49.1591 54.8736 49.4714 54.6081 49.5918C54.608 49.5918 54.6079 49.5919 54.6078 49.5919L54.5047 49.3642L54.869 48.8934ZM54.869 48.8934C54.7477 48.6312 54.4382 48.5124 54.173 48.6332C52.8663 49.2259 51.4763 49.5265 50.0402 49.5265C45.7821 49.5265 42.1444 46.851 40.7 43.0942H50.2986C50.5883 43.0942 50.8249 42.8591 50.8249 42.5679C50.8249 42.2767 50.5883 42.0416 50.2986 42.0416H40.3605C40.1477 41.2317 40.0272 40.387 40.0272 39.514C40.0272 38.6411 40.1477 37.7958 40.3605 36.9858H50.2979C50.5876 36.9858 50.8242 36.7507 50.8242 36.4595C50.8242 36.1683 50.5876 35.9332 50.2979 35.9332H40.6994C42.1445 32.177 45.7822 29.5015 50.0395 29.5015C51.4757 29.5015 52.8664 29.8015 54.1722 30.3941L54.1734 30.3947M54.869 48.8934L54.1734 30.3947M54.1734 30.3947C54.4365 30.5125 54.748 30.3991 54.8689 30.1326M54.1734 30.3947L40.432 35.9332C41.8892 32.0371 45.6409 29.2515 50.0395 29.2515C51.5112 29.2515 52.9372 29.5591 54.2755 30.1665C54.4151 30.229 54.5782 30.1686 54.6414 30.029L54.8687 30.1331C54.8688 30.1329 54.8689 30.1328 54.8689 30.1326M54.8689 30.1326C54.9905 29.8664 54.8717 29.5553 54.6071 29.4354M54.8689 30.1326L54.6071 29.4354M54.6071 29.4354C53.1633 28.7807 51.6258 28.4482 50.0388 28.4482L50.0387 28.4482C45.1903 28.4496 41.066 31.5864 39.574 35.934H37.3154C37.0257 35.934 36.7891 36.1691 36.7891 36.4603C36.7891 36.7515 37.0257 36.9866 37.3154 36.9866H39.2778C39.0848 37.7979 38.9738 38.6418 38.9738 39.5148C38.9738 40.3871 39.0847 41.2314 39.2778 42.0423H37.3154C37.0257 42.0423 36.7891 42.2774 36.7891 42.5686C36.7891 42.8598 37.0257 43.0949 37.3154 43.0949H39.5734L54.6071 29.4354ZM54.6071 29.4354C54.6071 29.4355 54.6071 29.4355 54.6072 29.4355L54.5039 29.6632L54.6071 29.4354Z" fill="#EA142E" stroke="#EA142E" stroke-width="0.5"/>
</svg>
