<svg width="30" height="30" viewBox="0 0 30 30" fill="none" xmlns="http://www.w3.org/2000/svg">
<path d="M21.9465 7.45084L21.7697 7.27406L21.5929 7.45084L15 14.0438L8.40707 7.45084L8.2303 7.27406L8.05352 7.45084L7.45079 8.05356L7.27402 8.23034L7.45079 8.40712L14.0437 15L7.45079 21.593L7.27402 21.7698L7.45079 21.9465L8.05352 22.5493L8.23029 22.726L8.40707 22.5493L15 15.9563L21.5929 22.5493L21.7697 22.726L21.9465 22.5493L22.5492 21.9465L22.726 21.7698L22.5492 21.593L15.9563 15L22.5492 8.40712L22.726 8.23034L22.5492 8.05356L21.9465 7.45084Z" fill="white" stroke="white" stroke-width="0.5"/>
</svg>
