<svg width="18" height="34" viewBox="0 0 18 34" fill="none" xmlns="http://www.w3.org/2000/svg">
<path d="M16.6213 16.5713L16.633 16.5595H16.5123H1.46261C1.58674 12.2747 3.17066 8.64779 5.80461 6.08918C8.44906 3.52036 12.1548 2.02559 16.5123 2.02559C16.8091 2.02559 17.0501 1.78458 17.0501 1.4878C17.0501 1.19102 16.8091 0.95 16.5123 0.95C11.7613 0.95 7.72369 2.60918 4.87372 5.45908C2.02375 8.30898 0.364429 12.3466 0.364429 17.0979V32.7074C0.364429 33.0041 0.605448 33.2452 0.902226 33.2452H16.5117C16.8085 33.2452 17.0495 33.0041 17.0495 32.7074V17.0979C17.0495 16.8386 16.8656 16.6219 16.6213 16.5713ZM15.9745 32.169H1.44058V17.6351H15.9745V32.169Z" fill="#3C4D69" stroke="#3C4D69" stroke-width="0.1"/>
</svg>
